# xmcd CD database file
#
# Track frame offsets:
#	150
#	21427
#	38975
#	65795
#	93710
#	114092
#	135147
#	151970
#	169717
#
# Disc length: 2519 seconds
#
# Revision: 2
# Processed by: cddbd v1.5.2PL0 Copyright (c) Steve Scherf et al.
# Submitted via: CDex 1.70beta2
#
DISCID=6f09d509
DTITLE=チューリップ - Halo/OTO GRA・音蔵シリーズ
DYEAR=1993
DGENRE=
TTITLE0=The Halo
TTITLE1=コスモスの咲く郷
TTITLE2=輝く星
TTITLE3=丘に吹く風
TTITLE4=星空の伝言
TTITLE5=想い出のランドスケープ
TTITLE6=The Bells Are Ringing
TTITLE7=セルリアン・ブルー
TTITLE8=愛を抱きしめて
EXTD=YEAR: 1993
EXTT0=
EXTT1=
EXTT2=
EXTT3=
EXTT4=
EXTT5=
EXTT6=
EXTT7=
EXTT8=
PLAYORDER=
